<?xml version="1.0" encoding="UTF-8"?>
<svg width="161px" height="249px" viewBox="0 0 161 249" version="1.1" xmlns="http://www.w3.org/2000/svg" xmlns:xlink="http://www.w3.org/1999/xlink">
    <!-- Generator: Sketch 56.3 (81716) - https://sketch.com -->
    <title>face</title>
    <desc>Created with Sketch.</desc>
    <g id="Page-1" stroke="none" stroke-width="1" fill="none" fill-rule="evenodd" stroke-linejoin="round">
        <g id="Desktop-HD" transform="translate(-639.000000, -143.000000)" stroke="#4CA585" stroke-width="10.65">
            <g id="face" transform="translate(645.000000, 149.000000)">
                <path d="M73.8378806,0.304016485 C61.1495373,0.285107463 36.4001343,5.99739701 21.6241866,22.0480157 C14.1050373,30.2157313 1.41079851,47.7790821 0.133828358,88.5389552 C-0.44511194,107.019649 5.76110448,156.158239 11.5552239,173.828299 C15.6054478,186.180597 42.2078134,222.830112 61.1784254,233.703813 C66.5409925,236.777149 73.7783358,236.695997 75.0340821,236.695997 C76.3599851,236.601463 83.2099925,236.777149 88.5719701,233.703813 C107.542582,222.830112 133.634985,186.001373 138.195172,173.828299 C143.103194,160.728448 150.196097,107.019649 149.616567,88.5389552 C148.339597,47.7790821 135.645358,30.2157313 128.126209,22.0480157 C113.350261,5.99739701 88.7464776,0.265711194 75.9514254,0.304016485 C75.1183881,0.306685075 73.8378806,0.304016485 73.8378806,0.304016485 Z" id="Path"></path>
            </g>
        </g>
    </g>
</svg>