<?xml version="1.0" encoding="UTF-8"?>
<svg width="270px" height="266px" viewBox="0 0 270 266" version="1.1" xmlns="http://www.w3.org/2000/svg" xmlns:xlink="http://www.w3.org/1999/xlink">
    <!-- Generator: Sketch 56.3 (81716) - https://sketch.com -->
    <title>PhotoGallery</title>
    <desc>Created with Sketch.</desc>
    <g id="Page-1" stroke="none" stroke-width="1" fill="none" fill-rule="evenodd">
        <g id="Desktop-HD" transform="translate(-585.000000, -207.000000)" fill="#283F5C" fill-rule="nonzero">
            <g id="PhotoGallery" transform="translate(585.500000, 207.000000)">
                <path d="M10.2883845,0.124467137 C4.64832392,0.124467137 0.0482816078,4.73573882 0.0482816078,10.3895688 L0.0482816078,174.631086 C0.0482816078,180.28489 4.64832392,184.896078 10.2883845,184.896078 L174.129859,184.896078 C179.770102,184.896078 184.370076,180.28489 184.370076,174.631086 L184.370076,10.3895688 C184.370076,4.73573882 179.770102,0.124467137 174.129859,0.124467137 L10.2883845,0.124467137 Z M20.5284718,20.6546653 L163.889902,20.6546653 L163.889902,143.835849 L20.5284718,143.835849 L20.5284718,20.6546653 Z M194.610033,29.9573373 L194.610033,50.8083471 L213.170314,54.0162549 L194.610033,161.799716 L194.610033,174.631086 C194.610033,185.978855 185.410084,195.161331 174.129859,195.161331 L65.6488,195.161331 L195.570241,217.616165 C200.298637,218.471493 206.494427,214.312916 207.410371,209.275761 L234.930418,47.2796745 C235.890625,41.7061922 232.170537,36.3731529 226.610355,35.4108588 L194.610033,29.9573373 Z M92.2091608,40.5433549 C80.4089314,40.5433549 70.4490569,48.6832157 70.4490569,63.9604824 C70.4490569,73.9448706 74.8889098,84.0095804 81.0089961,90.2647529 C83.4089941,96.5201863 79.3290235,98.9259216 78.4491373,99.2466863 C66.0890039,103.737653 51.5687941,112.038157 51.5687941,120.097696 L51.5687941,133.249831 L132.849527,133.249831 L132.849527,120.097696 C132.849527,111.797453 118.289418,103.537371 105.32922,99.2466863 C104.729416,99.0464039 101.049227,97.4021588 103.409325,90.2647529 C109.489251,84.0095804 114.289508,73.9047098 114.289508,63.9604824 C114.289508,48.6832157 104.00939,40.5433549 92.2091608,40.5433549 Z M240.698215,82.5886822 L236.735007,102.529552 L245.759843,105.47965 C226.814174,175.189912 216.685841,212.338192 215.374843,216.924488 C213.408346,223.803932 205.762096,229.13637 194.517186,227.051764 C187.02058,225.662026 137.65716,216.594193 46.4269252,199.848266 L43.8398692,203.90862 C42.2196587,209.30216 45.2512926,215.26228 50.6285631,216.924488 L206.983904,265.481647 C212.358446,267.182876 218.270622,264.059267 219.970662,258.671833 L268.143908,101.899868 C269.843463,96.5118761 267.090251,90.6114837 261.674676,88.9063392 L240.698215,82.5886822 Z" id="Shape"></path>
            </g>
        </g>
    </g>
</svg>